<svg width="25" height="24" viewBox="0 0 25 24" fill="none" xmlns="http://www.w3.org/2000/svg">
<path fill-rule="evenodd" clip-rule="evenodd" d="M8.3378 1.4137C11.0519 0.708392 13.9013 0.708392 16.6154 1.4137L17.0671 1.53109C21.8298 2.76878 25.0164 7.24747 24.6244 12.1528L24.5427 13.175C24.2888 16.3526 22.2719 19.1185 19.324 20.3316C18.9777 20.4742 18.6867 20.7248 18.4944 21.0462L17.8117 22.1874C17.5187 22.6771 17.054 23.0403 16.508 23.2064L16.4767 23.216C16.373 23.2475 16.2646 23.2612 16.1563 23.2565C15.6405 23.2341 15.2029 22.8705 15.0864 22.3676L15.0633 22.2681C14.9621 21.8311 14.3421 21.8246 14.2317 22.2594L14.2134 22.3314C14.0775 22.8663 13.6272 23.2629 13.0795 23.3301L12.7107 23.3753C12.5839 23.3909 12.4557 23.3909 12.3289 23.3753L11.9184 23.325C11.3958 23.2608 10.9661 22.8825 10.8365 22.3721L10.8108 22.2706C10.7054 21.8558 10.1109 21.8713 10.0273 22.291L10.014 22.3576C9.91323 22.8631 9.48019 23.2343 8.96525 23.2567C8.85981 23.2613 8.75437 23.2479 8.6534 23.2172L8.61176 23.2046C8.06835 23.0393 7.60223 22.6846 7.298 22.205L6.56846 21.0548C6.36121 20.7281 6.05268 20.4782 5.69002 20.3433C2.44672 19.137 0.236549 16.1113 0.0738345 12.6548L0.0319711 11.7655C-0.190085 7.04834 2.92319 2.82079 7.49373 1.63305L8.3378 1.4137ZM6.25567 13.1958C8.08394 13.1958 9.56604 11.7137 9.56604 9.88547C9.56604 8.0572 8.08394 6.5751 6.25567 6.5751C4.42741 6.5751 2.94531 8.0572 2.94531 9.88547C2.94531 11.7137 4.42741 13.1958 6.25567 13.1958ZM18.6975 13.1958C20.5258 13.1958 22.0079 11.7137 22.0079 9.88547C22.0079 8.05721 20.5258 6.57511 18.6975 6.57511C16.8693 6.57511 15.3872 8.05721 15.3872 9.88547C15.3872 11.7137 16.8693 13.1958 18.6975 13.1958Z" fill="white"/>
</svg>
